# xmcd
#
# Track frame offsets: 
#        150
#        14108
#        30487
#        41609
#        57785
#        71344
#
# Disc length: 1131 seconds
#
# Revision: 2
# Processed by: cddbd v1.5.2PL0 Copyright (c) Steve Scherf et al.
# Submitted via: ExactAudioCopyFreeDBPlugin 1.0
#
DISCID=48046906
DTITLE=Truck Stop - 40 Jahre... geile Zeiten [CD 2)
DYEAR=2013
DGENRE=Country
TTITLE0=Was für geile Zeiten das doch war'n
TTITLE1=A7 Blues
TTITLE2=Großstadtrevier - 2013
TTITLE3=Ich möcht' so gern Dave Dudley hör'n - 2013
TTITLE4=Take It Easy, altes Haus - 2013
TTITLE5=Der wilde, wilde Westen - 2013
EXTD=
EXTT0=
EXTT1=
EXTT2=
EXTT3=
EXTT4=
EXTT5=
PLAYORDER=
